<?xml version="1.0" standalone="no"?>
<!DOCTYPE svg PUBLIC "-//W3C//DTD SVG 20010904//EN"
 "http://www.w3.org/TR/2001/REC-SVG-20010904/DTD/svg10.dtd">
<svg version="1.0" xmlns="http://www.w3.org/2000/svg"
 width="16.000000pt" height="16.000000pt" viewBox="0 0 16.000000 16.000000"
 preserveAspectRatio="xMidYMid meet">
<metadata>
Created by potrace 1.11, written by Peter Selinger 2001-2013
</metadata>
<g transform="translate(0.000000,16.000000) scale(0.006154,-0.006154)"
fill="#000000" stroke="none">
<path d="M1006 2494 c-516 -92 -853 -510 -854 -1059 0 -164 24 -290 85 -435
147 -348 458 -596 816 -653 132 -21 160 -17 252 38 44 26 81 49 83 50 2 2 -22
1 -52 -2 l-56 -5 2 493 3 493 405 232 c223 128 409 233 413 233 4 1 20 -25 33
-56 114 -256 120 -526 19 -775 -41 -101 -130 -231 -225 -329 -41 -43 -153
-130 -223 -173 l-77 -48 26 -49 c26 -47 27 -48 53 -34 39 20 178 122 224 163
218 199 335 398 382 652 11 59 13 281 4 355 -56 422 -365 775 -774 881 -167
44 -385 55 -539 28z m389 -109 c171 -24 350 -107 491 -228 53 -46 145 -145
151 -165 3 -7 -788 -464 -814 -470 -10 -3 -767 422 -792 444 -9 8 57 89 126
155 225 213 523 307 838 264z m-820 -648 c94 -52 186 -104 205 -114 140 -79
366 -206 369 -210 6 -5 8 -943 3 -961 -4 -12 -17 -12 -93 3 -14 3 -61 16 -105
31 -267 87 -490 287 -606 542 -109 241 -112 564 -6 789 19 40 21 41 41 29 12
-7 99 -56 192 -109z"/>
<path d="M1086 2292 c-4 -6 0 -14 7 -19 22 -13 37 -48 37 -87 0 -26 -10 -46
-40 -81 -48 -55 -56 -83 -43 -141 6 -24 7 -44 2 -44 -34 0 -128 137 -112 163
3 6 1 7 -6 3 -23 -14 -43 -82 -43 -143 1 -76 25 -136 78 -187 41 -39 199 -124
211 -112 4 3 -3 38 -16 77 -26 82 -23 125 16 207 27 56 43 73 43 46 0 -9 27
-43 60 -76 52 -51 60 -64 60 -96 0 -26 -9 -51 -29 -78 -37 -49 -50 -94 -28
-94 8 0 17 3 19 8 2 4 30 30 63 57 125 105 159 160 162 263 2 88 -9 123 -54
168 -41 41 -52 43 -51 7 0 -16 -6 -44 -14 -63 -18 -40 -64 -97 -73 -88 -3 3
-1 35 6 71 10 52 10 72 0 95 -17 40 -76 99 -124 124 -45 23 -122 34 -131 20z"/>
<path d="M773 1493 c1 -34 -2 -38 -31 -47 -38 -11 -91 -67 -93 -99 -4 -51 2
-70 30 -109 l30 -41 -24 -47 c-18 -36 -29 -47 -46 -46 -12 0 -24 -4 -26 -11
-3 -7 3 -9 16 -6 12 3 21 1 21 -5 0 -6 -23 -57 -50 -113 -28 -56 -48 -104 -46
-107 3 -2 10 4 16 15 127 211 125 208 163 211 34 3 37 1 37 -24 0 -29 10 -28
14 3 2 12 13 19 32 21 28 3 31 -2 137 -214 60 -119 110 -214 113 -211 3 2 -36
98 -86 213 l-90 209 33 5 c23 4 27 7 16 12 -9 4 -25 5 -35 4 -14 -3 -25 9 -39
38 l-21 41 31 39 c25 31 30 47 30 90 0 65 -23 103 -76 124 -36 14 -39 18 -39
54 0 21 -4 38 -9 38 -4 0 -8 -17 -8 -37z m82 -108 c32 -33 33 -87 4 -135 -20
-32 -23 -33 -30 -15 -4 11 -10 33 -14 48 -9 46 -21 22 -20 -40 1 -32 9 -72 18
-90 23 -43 21 -51 -9 -49 -19 1 -24 5 -20 18 2 10 0 20 -4 23 -5 3 -10 -5 -12
-17 -2 -16 -10 -22 -30 -23 -16 -1 -28 0 -28 2 0 2 11 20 23 41 17 27 24 54
26 100 2 69 -13 84 -24 22 -8 -48 -19 -50 -45 -7 -24 39 -25 70 -3 107 36 61
119 69 168 15z"/>
<path d="M1720 1537 c0 -2 25 -21 55 -42 56 -38 65 -57 45 -96 -7 -12 -7 -25
-2 -36 23 -41 -34 -163 -179 -381 -99 -148 -175 -293 -166 -316 4 -10 15 -13
34 -10 37 7 55 24 49 47 -9 37 25 101 181 335 86 130 160 241 164 246 4 5 22
-12 40 -38 18 -25 39 -46 46 -46 18 0 103 88 103 106 0 37 -179 178 -277 219
-31 13 -93 21 -93 12z"/>
<path d="M1505 504 c-22 -15 -44 -30 -49 -34 -11 -10 85 -200 101 -200 16 0
95 30 107 41 10 8 -100 219 -114 219 -3 0 -23 -12 -45 -26z"/>
<path d="M2060 440 l-215 -5 -67 -35 c-121 -63 -112 -65 295 -68 l357 -2 0 54
0 54 -77 4 c-43 2 -175 1 -293 -2z"/>
<path d="M1290 323 c-80 -46 -147 -87 -149 -89 -3 -2 6 -26 18 -53 l23 -48
151 67 c83 36 152 71 154 77 2 6 -9 38 -25 71 l-28 61 -144 -86z"/>
<path d="M1072 192 c-28 -14 -32 -20 -27 -41 3 -13 12 -32 18 -42 11 -15 15
-16 50 0 20 8 37 20 37 25 0 8 -39 77 -43 75 -1 0 -17 -8 -35 -17z"/>
</g>
</svg>
